<?xml version="1.0" standalone="no"?><!DOCTYPE svg PUBLIC "-//W3C//DTD SVG 1.1//EN" "http://www.w3.org/Graphics/SVG/1.1/DTD/svg11.dtd"><svg t="1612539748158" class="icon" viewBox="0 0 1037 1024" version="1.1" xmlns="http://www.w3.org/2000/svg" p-id="9601" width="32.40625" height="32" xmlns:xlink="http://www.w3.org/1999/xlink"><defs><style type="text/css"></style></defs><path d="M1020.544295 835.632865c0 15.013949-12.199856 27.190269-27.214828 27.190269L27.201525 862.823134c-15.013949 0-27.202549-12.17632-27.202549-27.190269l0 0c0-15.037485 12.1886-27.239388 27.202549-27.239388l966.128965 0C1008.344438 808.393477 1020.544295 820.59538 1020.544295 835.632865L1020.544295 835.632865z" p-id="9602" fill="#000000"></path><path d="M1020.544295 266.940678c0-15.038508-12.199856-27.214828-27.214828-27.214828L27.201525 239.72585c-15.013949 0-27.202549 12.17632-27.202549 27.214828l0 0c0 15.038508 12.1886 27.214828 27.202549 27.214828l966.128965 0C1008.344438 294.155507 1020.544295 281.979186 1020.544295 266.940678L1020.544295 266.940678z" p-id="9603" fill="#000000"></path><path d="M1020.544295 551.286772c0 15.038508-12.199856 27.215852-27.214828 27.215852L27.201525 578.502623c-15.013949 0-27.202549-12.17632-27.202549-27.215852l0 0c0-15.013949 12.1886-27.214828 27.202549-27.214828l966.128965 0C1008.344438 524.071943 1020.544295 536.272823 1020.544295 551.286772L1020.544295 551.286772z" p-id="9604" fill="#000000"></path></svg>