<?xml version="1.0" standalone="no"?><!DOCTYPE svg PUBLIC "-//W3C//DTD SVG 1.1//EN" "http://www.w3.org/Graphics/SVG/1.1/DTD/svg11.dtd"><svg t="1612542824247" class="icon" viewBox="0 0 1024 1024" version="1.1" xmlns="http://www.w3.org/2000/svg" p-id="16769" width="20" height="20" xmlns:xlink="http://www.w3.org/1999/xlink"><defs><style type="text/css"></style></defs><path d="M66.8 512c0-11 9-20 20-20h820.6c11 0 20 9 20 20s-9 20-20 20H86.8c-11.1 0-20-9-20-20z" p-id="16770" fill="#000000"></path><path d="M544.2 885c0-5.1 2-10.2 5.9-14.1L908.9 512 550.1 153.1c-7.8-7.8-7.8-20.5 0-28.3s20.5-7.8 28.3 0l373 373c7.8 7.8 7.8 20.5 0 28.3l-373 373c-7.8 7.8-20.5 7.8-28.3 0-3.9-3.9-5.9-9-5.9-14.1z" p-id="16771" fill="#000000"></path></svg>